<svg width="32" height="24" viewBox="0 0 32 24" fill="none" xmlns="http://www.w3.org/2000/svg">
<g clip-path="url(#clip0_305_26678)">
<path d="M7.37479 1.12517C8.05229 1.09461 8.7507 1.12994 9.43023 1.11611C9.63822 1.11188 9.87911 1.1092 10.0853 1.1268C10.0873 1.36253 10.0911 1.59824 10.0965 1.83393C10.1412 1.89192 10.1838 1.94243 10.2313 1.99789C10.7132 2.07582 11.4097 2.01609 11.9173 2.03512C11.921 2.37216 11.8865 2.61583 12.0189 2.92024C12.2892 2.94457 12.5629 2.94539 12.8347 2.95348C12.8438 3.18421 12.8274 3.41947 12.8514 3.64856C12.8609 3.73852 12.8966 3.77441 12.9574 3.83415C13.2057 3.87766 13.4976 3.8693 13.7518 3.86628C13.755 4.0798 13.7174 4.55351 13.8287 4.70091C14.0007 4.81223 14.9024 4.77877 15.155 4.77931L17.2924 4.77686C17.5595 4.77518 18.0546 4.75908 18.3075 4.78342L18.328 4.7855C18.3535 5.06901 18.3338 5.39937 18.3475 5.69402C18.5314 5.71511 18.9169 5.69971 19.1194 5.70391C19.7647 5.71732 20.4352 5.68479 21.0784 5.70347C21.0921 5.88532 21.0603 6.46627 21.1213 6.5858C21.2548 6.65542 22.6421 6.61748 22.9148 6.62754C22.9146 6.78258 22.8983 7.38737 22.9414 7.50125C23.0747 7.54518 24.1231 7.52807 24.3211 7.52788L26.8677 7.52841C27.3567 7.52788 27.9285 7.5131 28.4094 7.53531C28.4307 7.80236 28.3948 8.21304 28.4313 8.4502L30.2405 8.45103C30.2494 8.88582 30.2545 9.35026 30.2432 9.78431C30.2235 10.5417 30.2703 11.3306 30.2387 12.0843C29.9903 12.0829 29.5868 12.072 29.3474 12.0943C29.3139 12.6722 29.35 13.3191 29.3294 13.9086C29.1727 13.9138 28.5444 13.8926 28.4565 13.9357C28.3746 14.0982 28.4212 15.4567 28.4168 15.7491C28.2383 15.7488 27.6555 15.7264 27.5346 15.7829C27.4463 15.9109 27.5041 18.9545 27.4914 19.4183C27.2928 19.4164 26.7796 19.4003 26.6051 19.4355C26.5862 19.6682 26.5925 19.9024 26.5824 20.1354C26.5764 20.2726 26.614 20.3657 26.7667 20.3637C27.0103 20.3605 27.2531 20.3568 27.4966 20.3683C27.4961 20.9386 27.4751 21.6349 27.5024 22.1917C27.7869 22.2118 28.2059 22.1997 28.5003 22.1994L30.1763 22.1988C30.4931 22.1986 30.848 22.1911 31.1624 22.2046C31.1661 22.4736 31.1762 22.8125 31.1635 23.0793L27.9693 23.0764C27.7427 23.0766 26.7726 23.0591 26.6211 23.1006C26.5286 23.2279 26.6454 23.8186 26.5537 24.0002H22.0578C22.0052 23.8811 22.0345 23.2863 22.0187 23.0914C21.8214 23.0583 20.9436 23.0741 20.6973 23.0739L17.8575 23.075L11.6943 23.077C11.3588 23.0775 9.32673 23.0526 9.19616 23.1075C9.11656 23.2948 9.21898 23.7996 9.14713 24.0002H5.57607C5.4989 23.8895 5.55214 23.3195 5.51554 23.0939C5.36006 23.0698 5.07595 23.0759 4.91405 23.0761L3.94611 23.0775L1.57417 23.0706C1.08829 23.0709 0.530224 23.0873 0.0502224 23.0706C0.0332135 22.8724 0.0440857 22.4199 0.0488098 22.2096C0.330318 22.1917 0.73188 22.2043 1.02332 22.2044L2.71611 22.2037C2.92591 22.2037 3.52137 22.2188 3.68601 22.1739C3.72521 22.1288 3.70734 20.5859 3.71478 20.3815C3.98962 20.3501 4.29576 20.3781 4.58848 20.3478C4.62917 20.1544 4.64907 18.6756 4.58461 18.5271C4.50355 18.4729 3.87202 18.4997 3.70403 18.4871C3.69433 18.1818 3.70398 17.8464 3.70553 17.5383L3.70708 16.0546C3.70717 14.7543 3.69249 13.4293 3.71057 12.1319C4.00543 12.1084 4.34046 12.1369 4.61788 12.104C4.65053 11.5674 4.61052 10.862 4.62728 10.2922C4.90838 10.272 5.23504 10.276 5.51897 10.2739C5.5438 10.0766 5.53636 9.80684 5.53641 9.60401L5.53563 8.56789L5.54176 6.40778C5.54243 5.87438 5.53541 5.32384 5.54957 4.79178C5.72906 4.77693 5.89745 4.78285 6.07529 4.77552C6.25356 4.76818 6.32118 4.73865 6.43782 4.61203C6.45152 4.41002 6.4329 3.07684 6.47647 2.98308C6.68569 2.86334 7.13971 3.08592 7.34734 2.77877L7.35927 2.76093C7.38804 2.27751 7.36611 1.62786 7.37479 1.12517Z" fill="#FEFEFE"/>
<path d="M7.3741 1.12517C8.0516 1.09461 8.75001 1.12994 9.42954 1.11611C9.63753 1.11188 9.87842 1.1092 10.0846 1.1268C10.0867 1.36253 10.0904 1.59824 10.0959 1.83393C10.1405 1.89192 10.1831 1.94243 10.2306 1.99789C10.7125 2.07582 11.409 2.01609 11.9166 2.03512C11.9203 2.37216 11.8858 2.61583 12.0182 2.92024C12.2885 2.94457 12.5622 2.94539 12.834 2.95348C12.8431 3.18421 12.8267 3.41947 12.8507 3.64856C12.8602 3.73852 12.8959 3.77441 12.9567 3.83415C13.205 3.87766 13.4969 3.8693 13.7512 3.86628C13.7543 4.0798 13.7167 4.55351 13.8281 4.70091C14 4.81223 14.9018 4.77877 15.1543 4.77931L17.2917 4.77686C17.5588 4.77518 18.0539 4.75908 18.3068 4.78342L18.3273 4.7855C18.3528 5.06901 18.3331 5.39937 18.3468 5.69402C18.5307 5.71511 18.9162 5.69971 19.1187 5.70391C19.764 5.71732 20.4345 5.68479 21.0777 5.70347C21.0914 5.88532 21.0596 6.46627 21.1207 6.5858C21.2541 6.65542 22.6414 6.61748 22.9141 6.62754C22.9139 6.78258 22.8977 7.38737 22.9407 7.50125C23.074 7.54518 24.1224 7.52807 24.3204 7.52788L26.867 7.52841C27.356 7.52788 27.9278 7.5131 28.4087 7.53531C28.43 7.80236 28.3941 8.21304 28.4306 8.45021L28.4216 8.44971C28.3231 8.40737 24.4138 8.44393 23.9859 8.43337C23.7856 8.42843 23.2036 8.44666 22.9723 8.4293C22.9418 8.42702 22.9475 8.42061 22.9257 8.38626C22.9455 8.22013 22.9303 7.70472 22.9283 7.51793L21.1018 7.51618L21.1007 6.60484C20.2108 6.57822 19.2519 6.60608 18.3539 6.59972C18.3457 6.30043 18.3546 5.99185 18.3491 5.68927C17.7717 5.66927 17.099 5.68554 16.5149 5.68679C16.5163 6.5861 16.5025 7.52747 16.5181 8.42398C16.2123 8.43176 15.9065 8.4342 15.6005 8.43127C15.6001 8.71416 15.6102 9.08019 15.5923 9.35271C15.2942 9.34495 14.9727 9.3594 14.6814 9.34362C14.6841 9.65132 14.6747 9.95734 14.6797 10.2656L11.1937 10.2673C10.5331 10.2673 9.83424 10.2807 9.17852 10.27C9.18835 10.5719 9.16722 10.9114 9.17956 11.1931C8.82568 11.1633 8.23955 11.1782 7.8678 11.18C7.50042 11.1819 6.96967 11.1631 6.61446 11.1822L6.43232 11.1807C6.14375 11.1819 5.80484 11.175 5.52003 11.1861L5.51997 12.099C5.21904 12.0989 4.9181 12.1006 4.61719 12.104C4.64984 11.5674 4.60983 10.862 4.62659 10.2922C4.90769 10.272 5.23435 10.276 5.51828 10.2739C5.54311 10.0766 5.53567 9.80684 5.53572 9.60401L5.53494 8.56789L5.54107 6.40778C5.54174 5.87438 5.53472 5.32384 5.54888 4.79178C5.72837 4.77693 5.89676 4.78285 6.0746 4.77552C6.25287 4.76818 6.32049 4.73865 6.43713 4.61203C6.45083 4.41002 6.43221 3.07684 6.47578 2.98308C6.685 2.86334 7.13902 3.08592 7.34664 2.77877L7.35858 2.76093C7.38735 2.27751 7.36542 1.62786 7.3741 1.12517Z" fill="#FE971B"/>
<path d="M7.3741 1.12517C8.0516 1.09461 8.75001 1.12994 9.42954 1.11611C9.63753 1.11188 9.87842 1.1092 10.0846 1.1268C10.0867 1.36253 10.0904 1.59824 10.0959 1.83393C10.1405 1.89192 10.1831 1.94243 10.2306 1.99789C10.7125 2.07582 11.409 2.01609 11.9166 2.03512C11.9203 2.37216 11.8858 2.61583 12.0182 2.92024C12.2885 2.94457 12.5622 2.94539 12.834 2.95348C12.8431 3.18421 12.8267 3.41947 12.8507 3.64856C12.8602 3.73852 12.8959 3.77441 12.9567 3.83415C13.205 3.87766 13.4969 3.8693 13.7512 3.86628C13.7543 4.0798 13.7167 4.55351 13.8281 4.70091C14 4.81223 14.9018 4.77877 15.1543 4.77931L17.2917 4.77686C17.5588 4.77518 18.0539 4.75908 18.3068 4.78342L18.3273 4.7855C18.3528 5.06901 18.3331 5.39937 18.3468 5.69402C18.5307 5.71511 18.9162 5.69971 19.1187 5.70391C19.764 5.71732 20.4345 5.68479 21.0777 5.70347C21.0914 5.88532 21.0596 6.46627 21.1207 6.5858C21.2541 6.65542 22.6414 6.61748 22.9141 6.62754C22.9139 6.78258 22.8977 7.38737 22.9407 7.50125C23.074 7.54518 24.1224 7.52807 24.3204 7.52788L26.867 7.52841C27.356 7.52788 27.9278 7.5131 28.4087 7.53531C28.43 7.80236 28.3941 8.21304 28.4306 8.45021L28.4216 8.44971C28.3231 8.40737 24.4138 8.44393 23.9859 8.43337C23.7856 8.42843 23.2036 8.44666 22.9723 8.4293C22.9418 8.42702 22.9475 8.42061 22.9257 8.38626C22.9455 8.22013 22.9303 7.70472 22.9283 7.51793L21.1018 7.51618L21.1007 6.60484C20.2108 6.57822 19.2519 6.60608 18.3539 6.59972C18.3457 6.30043 18.3546 5.99185 18.3491 5.68927C17.7717 5.66927 17.099 5.68554 16.5149 5.68679L13.7677 5.68544L13.7679 4.77101L12.8533 4.77003C12.8461 4.47081 12.8508 4.15434 12.851 3.85375L11.9336 3.85115C11.9328 3.54565 11.9336 3.24015 11.9361 2.93467L10.1062 2.93525C10.1008 2.62989 10.1004 2.32445 10.1049 2.01906C9.49678 2.02879 8.88028 2.01135 8.26826 2.02144C8.2636 2.3241 8.26665 2.63422 8.26646 2.93747C7.96204 2.93419 7.65759 2.93376 7.35316 2.93617C7.33864 3.53251 7.34916 4.17109 7.34881 4.7706C7.22406 4.77078 6.49658 4.7522 6.44055 4.78776L6.43893 4.82581C6.46837 5.23904 6.44586 5.9934 6.44569 6.42944L6.44604 9.76981C6.44546 10.2329 6.4164 10.7256 6.43232 11.1807C6.14375 11.1819 5.80484 11.175 5.52003 11.1861L5.51997 12.099C5.21904 12.0989 4.9181 12.1006 4.61719 12.104C4.64984 11.5674 4.60983 10.862 4.62659 10.2922C4.90769 10.272 5.23435 10.276 5.51828 10.2739C5.54311 10.0766 5.53567 9.80684 5.53572 9.60401L5.53494 8.56789L5.54107 6.40778C5.54174 5.87438 5.53472 5.32384 5.54888 4.79178C5.72837 4.77693 5.89676 4.78285 6.0746 4.77552C6.25287 4.76818 6.32049 4.73865 6.43713 4.61203C6.45083 4.41002 6.43221 3.07684 6.47578 2.98308C6.685 2.86334 7.13902 3.08592 7.34664 2.77877L7.35858 2.76093C7.38735 2.27751 7.36542 1.62786 7.3741 1.12517Z" fill="white"/>
<path d="M6.43036 10.2747C6.4482 9.03085 6.43234 7.73938 6.43157 6.49164L6.43044 5.44407C6.43035 5.2681 6.42327 4.99632 6.43929 4.82568C6.46873 5.23891 6.44622 5.99328 6.44605 6.42931L6.4464 9.76968C6.44582 10.2328 6.41676 10.7255 6.43268 11.1806C6.14411 11.1817 5.8052 11.1749 5.52039 11.186C5.50941 10.8986 5.52016 10.5626 5.52528 10.2742C5.82694 10.2677 6.1287 10.2678 6.43036 10.2747Z" fill="#DB7801"/>
<path d="M8.26491 3.85284C8.4034 3.86439 8.66319 3.85677 8.81514 3.85829C9.27497 3.86296 9.73481 3.86399 10.1946 3.86139C10.4501 3.85866 10.759 3.83982 11.009 3.85366C11.0213 4.03708 10.9961 4.64236 11.0551 4.73992C11.0829 4.76313 11.1145 4.78329 11.1518 4.78236C11.4136 4.77575 11.6771 4.77004 11.9389 4.7717C11.9314 5.07249 11.9436 5.38026 11.9379 5.68612C12.1729 5.69574 12.6546 5.67925 12.8433 5.70742C12.8494 5.88901 12.8687 6.45826 12.85 6.59806C12.6735 6.61899 12.4594 6.60915 12.2811 6.6124C11.8652 6.61996 11.4261 6.59646 11.0123 6.61761C11.0084 6.87298 11.0118 7.17414 11.0273 7.42636C11.0302 7.46862 11.0314 7.46612 11.017 7.5056C10.9535 7.5223 10.6909 7.51461 10.6054 7.51803C10.1741 7.53522 9.60034 7.47598 9.18623 7.55487C9.18309 7.84103 9.18478 8.12722 9.19129 8.41333C8.98824 8.44595 8.6891 8.43864 8.47882 8.4385C8.09971 8.44201 7.72055 8.4354 7.3418 8.41864C7.36644 7.86029 7.35443 7.18637 7.34259 6.62358C7.64371 6.60393 7.9679 6.62011 8.25954 6.59252C8.2777 6.26315 8.26918 5.83418 8.26934 5.50105C8.2708 4.95164 8.26933 4.40224 8.26491 3.85284Z" fill="#FE9997"/>
<path d="M28.4313 8.4502L30.2405 8.45102C30.2494 8.88581 30.2545 9.35025 30.2432 9.7843C30.2235 10.5417 30.2703 11.3306 30.2387 12.0843C29.9903 12.0829 29.5868 12.0719 29.3474 12.0943C29.3139 12.6722 29.35 13.3191 29.3294 13.9086C29.1727 13.9138 28.5444 13.8926 28.4565 13.9357C28.3746 14.0982 28.4212 15.4567 28.4168 15.7491C28.2383 15.7488 27.6555 15.7264 27.5346 15.7828C27.4463 15.9109 27.5041 18.9545 27.4914 19.4183C27.2928 19.4164 26.7796 19.4003 26.6051 19.4354C26.5862 19.6682 26.5925 19.9024 26.5824 20.1354C26.5764 20.2726 26.614 20.3657 26.7667 20.3637C27.0103 20.3605 27.2531 20.3568 27.4966 20.3683C27.4961 20.9386 27.4751 21.6349 27.5024 22.1917C27.7869 22.2118 28.2059 22.1997 28.5003 22.1994L30.1763 22.1987C30.4931 22.1986 30.848 22.1911 31.1624 22.2046C31.1661 22.4736 31.1762 22.8125 31.1635 23.0793L27.9693 23.0764C27.7427 23.0765 26.7726 23.0591 26.6211 23.1006C26.5286 23.2279 26.6454 23.8186 26.5537 24.0002H22.0578C22.0052 23.881 22.0345 23.2863 22.0187 23.0914C21.8214 23.0583 20.9436 23.0741 20.6973 23.0739L17.8575 23.075L11.6943 23.077C11.3588 23.0775 9.32673 23.0526 9.19616 23.1075C9.11656 23.2948 9.21898 23.7996 9.14713 24.0002H5.57607C5.4989 23.8895 5.55214 23.3195 5.51554 23.0939C5.36006 23.0698 5.07595 23.0759 4.91405 23.0761L3.94611 23.0775L1.57417 23.0706C1.08829 23.0709 0.530224 23.0873 0.0502224 23.0706C0.0332135 22.8724 0.0440857 22.4199 0.0488098 22.2096C0.330318 22.1917 0.73188 22.2043 1.02332 22.2044L2.71611 22.2037C2.92591 22.2037 3.52137 22.2188 3.68601 22.1739C3.72521 22.1288 3.70734 20.5859 3.71478 20.3815C3.98962 20.3501 4.29576 20.3781 4.58848 20.3478C4.62917 20.1544 4.64907 18.6756 4.58461 18.5271C4.50355 18.4728 3.87202 18.4997 3.70403 18.4871C3.69433 18.1818 3.70398 17.8464 3.70553 17.5383L3.70708 16.0546C3.70717 14.7543 3.69249 13.4293 3.71057 12.1319C4.00543 12.1084 4.34046 12.1369 4.61788 12.104L4.61832 12.1135C4.57182 12.2446 4.5986 14.1532 4.59862 14.3993L4.59926 17.0548C4.59952 17.5223 4.58928 18.0477 4.60492 18.5112C4.84099 18.5129 5.08545 18.5176 5.32081 18.5124C5.38722 18.5162 5.45407 18.521 5.52053 18.5219L5.52099 19.4324C5.6777 19.4298 5.83525 19.429 5.99197 19.4301C7.05558 19.4368 8.12223 19.4183 9.18552 19.4324L10.1016 19.4339C10.1044 19.7389 10.1056 20.044 10.1053 20.349C10.406 20.3494 10.7121 20.3468 11.0123 20.351L11.0174 22.179L11.1635 22.1776C11.4081 22.158 11.8322 22.1699 12.0903 22.1701L13.7725 22.1719L17.4321 22.1714L22.0159 22.1718C22.0067 22.0107 22.0161 21.7453 22.0159 21.5741C22.0139 21.1659 22.0153 20.7577 22.02 20.3493C22.324 20.3481 22.6281 20.3485 22.9321 20.3507C22.9266 20.1108 22.9217 19.6643 22.9358 19.4339C23.2396 19.4339 23.5435 19.4262 23.847 19.4109C23.8615 19.1197 23.8273 18.8317 23.852 18.5259C24.4717 18.517 25.0611 18.5317 25.6742 18.5325C25.676 18.722 25.6705 19.2665 25.692 19.4344L26.5939 19.4307C26.6175 18.2163 26.5726 16.971 26.6077 15.7629C26.9086 15.7655 27.2095 15.7654 27.5104 15.762C27.5245 15.1571 27.5095 14.5443 27.5181 13.9374C27.7404 13.9334 28.2309 13.9542 28.427 13.9265C28.4462 13.3362 28.4318 12.6933 28.4358 12.097L29.342 12.0979C29.3636 11.2562 29.3685 10.1953 29.3314 9.36358C29.0247 9.35424 28.7417 9.35169 28.4338 9.35141L28.4313 8.4502Z" fill="white"/>
<path d="M5.51997 19.4322C5.67667 19.4296 5.83422 19.4288 5.99094 19.4299C7.05455 19.4367 8.1212 19.4181 9.18449 19.4322L10.1005 19.4337C10.1034 19.7388 10.1046 20.0438 10.1042 20.3488C10.405 20.3493 10.711 20.3467 11.0113 20.3508L11.0164 22.1788C10.407 22.1851 9.79748 22.1877 9.18802 22.1868C9.18852 22.3096 9.19693 23.0014 9.17685 23.0851C9.0632 23.1138 8.44289 23.0977 8.28688 23.0988L8.26972 23.0478C7.96608 23.046 7.66243 23.0465 7.35881 23.0494L7.34294 23.0535L7.34332 23.0977H6.46597C6.40712 22.8969 6.43586 22.4097 6.43844 22.1852C6.1349 22.1926 5.81884 22.1897 5.51469 22.1889C5.26439 22.1849 4.87565 22.1972 4.64059 22.1769L4.60523 22.1664C4.59247 21.9997 4.59974 21.7233 4.59955 21.5479L4.6013 20.3536C4.89571 20.3441 5.21927 20.3494 5.51589 20.3488L5.51997 19.4322Z" fill="#FEFEFE"/>
<path d="M10.1059 20.3485C10.4066 20.349 10.7127 20.3464 11.0129 20.3505L11.018 22.1785C10.4086 22.1848 9.79913 22.1874 9.18967 22.1865C9.19018 22.3093 9.19858 23.0011 9.17851 23.0848C9.15938 22.9689 9.17639 22.3316 9.17818 22.1848C8.99791 22.1607 8.48577 22.1738 8.28206 22.1751C8.2828 21.941 8.29499 21.4809 8.26953 21.2651L9.18538 21.2679C9.18389 21.5689 9.18446 21.87 9.18705 22.171C9.4908 22.1745 9.79985 22.1718 10.1041 22.1721C10.1122 21.5694 10.1057 20.9523 10.1059 20.3485Z" fill="#A8A7A7"/>
<path d="M8.26639 22.1753C8.26573 21.9277 8.251 21.4983 8.26935 21.2656C8.2948 21.4814 8.28261 21.9415 8.28188 22.1756C8.48559 22.1743 8.99772 22.1612 9.178 22.1853C9.1762 22.3321 9.1592 22.9694 9.17832 23.0853C9.06466 23.114 8.44436 23.0979 8.28835 23.099L8.27119 23.0481C7.96755 23.0462 7.6639 23.0467 7.36028 23.0496L7.34441 23.0537C7.33712 22.7782 7.34365 22.4718 7.34368 22.1937C7.21296 22.1946 6.64713 22.204 6.56445 22.1841C6.71493 22.15 7.15887 22.2052 7.32501 22.1715C7.34996 22.1434 7.34643 22.0916 7.34876 22.051C7.35236 22.0873 7.35746 22.1177 7.36355 22.1534C7.41796 22.1974 8.13975 22.1762 8.26639 22.1753Z" fill="#DADAD9"/>
<path d="M7.35742 22.1914L8.27088 22.1909C8.26758 22.4596 8.25813 22.7847 8.27138 23.048C7.96774 23.0462 7.6641 23.0466 7.36047 23.0496L7.35742 22.1914Z" fill="#A8A7A7"/>
<path d="M8.26639 22.1753C8.26573 21.9277 8.251 21.4983 8.26935 21.2656C8.2948 21.4814 8.28261 21.9415 8.28188 22.1756C8.48559 22.1743 8.99772 22.1612 9.178 22.1853C8.96639 22.2063 8.51253 22.193 8.28474 22.1923C8.28395 22.4692 8.27827 22.7714 8.2858 23.047C8.5231 23.0471 8.94644 23.051 9.17832 23.0853C9.06466 23.114 8.44436 23.0979 8.28835 23.099L8.27119 23.0481C8.25794 22.7848 8.26738 22.4596 8.27068 22.191L7.35723 22.1914L7.36028 23.0496L7.34441 23.0537C7.33712 22.7782 7.34365 22.4718 7.34368 22.1937C7.21296 22.1946 6.64713 22.204 6.56445 22.1841C6.71493 22.15 7.15887 22.2052 7.32501 22.1715C7.34996 22.1434 7.34643 22.0916 7.34876 22.051C7.35236 22.0873 7.35746 22.1177 7.36355 22.1534C7.41796 22.1974 8.13975 22.1762 8.26639 22.1753Z" fill="#CBCBCD"/>
<path d="M6.42491 22.1716C6.42399 21.9727 6.41116 21.4354 6.43307 21.2651L6.43477 21.2817C6.45037 21.4427 6.41648 22.0966 6.4564 22.1685C6.49847 22.1768 6.52032 22.1804 6.56302 22.1837C6.64569 22.2037 7.21152 22.1943 7.34225 22.1934C7.34222 22.4714 7.33568 22.7778 7.34297 23.0534L7.34335 23.0976H6.466C6.40715 22.8968 6.43589 22.4096 6.43847 22.1851C6.13494 22.1925 5.81887 22.1896 5.51473 22.1888C5.26442 22.1848 4.87568 22.1971 4.64062 22.1768C4.76704 22.1603 5.14839 22.1685 5.28712 22.1698C5.66637 22.1748 6.04565 22.1754 6.42491 22.1716Z" fill="#DADAD9"/>
<path d="M9.18591 19.4321L10.102 19.4337C10.1048 19.7387 10.106 20.0437 10.1057 20.3487C9.79908 20.3513 9.49248 20.3509 9.18591 20.347C9.18085 20.0468 9.18561 19.7335 9.18591 19.4321Z" fill="#A8A7A7"/>
<path d="M6.43359 21.2651C6.73935 21.2684 7.04514 21.2685 7.3509 21.2657L7.34784 22.0506C7.34551 22.0913 7.34904 22.1431 7.32409 22.1712C7.15795 22.2049 6.71402 22.1497 6.56354 22.1837C6.52084 22.1804 6.49899 22.1768 6.45692 22.1685C6.417 22.0966 6.45089 21.4427 6.4353 21.2817L6.43359 21.2651Z" fill="#A8A7A7"/>
<path d="M23.8512 18.5258C24.4709 18.5169 25.0603 18.5316 25.6734 18.5324C25.6753 18.7219 25.6697 19.2663 25.6912 19.4343L25.6884 19.4567C25.6835 19.7543 25.6826 20.0518 25.6857 20.3495L26.5983 20.3504C26.6052 20.6567 26.5911 20.9672 26.5988 21.2679C26.5965 21.5716 26.5962 21.8754 26.5979 22.179C26.2994 22.1732 25.984 22.179 25.6843 22.1801C25.4636 22.1759 24.9575 22.1959 24.7675 22.1747C24.4617 22.1721 24.1559 22.1716 23.8499 22.1732C23.8407 21.883 23.8481 21.5599 23.8493 21.2681C23.5664 21.2679 23.2086 21.2765 22.9312 21.2593C22.9284 20.9565 22.9284 20.6534 22.9313 20.3506C22.9258 20.1107 22.9209 19.6641 22.935 19.4338C23.2388 19.4338 23.5428 19.4261 23.8463 19.4108C23.8607 19.1196 23.8265 18.8316 23.8512 18.5258Z" fill="#FEFEFE"/>
<path d="M23.8512 18.5258C24.4709 18.5169 25.0603 18.5316 25.6734 18.5324C25.6753 18.7219 25.6697 19.2663 25.6912 19.4343L25.6884 19.4567C25.5515 19.4045 24.0944 19.4294 23.8522 19.4312C23.8453 19.7364 23.8446 20.0417 23.8495 20.3469C23.5435 20.3507 23.2374 20.3519 22.9313 20.3506C22.9258 20.1107 22.9209 19.6641 22.935 19.4338C23.2388 19.4338 23.5428 19.4261 23.8463 19.4108C23.8607 19.1196 23.8265 18.8316 23.8512 18.5258Z" fill="#A8A7A7"/>
<path d="M26.6 21.268C26.5977 21.5717 26.5974 21.8755 26.5991 22.1791C26.3007 22.1733 25.9852 22.1791 25.6855 22.1802L25.6863 21.2685C25.8472 21.2604 26.4741 21.2472 26.6 21.268Z" fill="#DADAD9"/>
<path d="M24.7688 21.2676L25.6861 21.2683L25.6853 22.18C25.4646 22.1759 24.9585 22.1958 24.7685 22.1747C24.7671 21.8723 24.7673 21.57 24.7688 21.2676Z" fill="#A8A7A7"/>
<path d="M23.851 22.1732C24.1569 22.1717 24.4627 22.1722 24.7685 22.1748C24.9585 22.1959 25.4646 22.176 25.6853 22.1801C25.6858 22.3769 25.6976 22.9385 25.6732 23.0974L24.7995 23.0981H23.8464L23.8405 23.0569C23.6517 23.0228 22.2233 23.0523 22.02 23.0849C22.0152 22.7951 22.019 22.4944 22.0189 22.2039C22.1066 22.1458 23.603 22.1995 23.851 22.1732Z" fill="#DADAD9"/>
<path d="M23.8492 22.1856C24.1432 22.1904 24.4746 22.1968 24.7681 22.1841C24.7669 22.3597 24.7453 22.9794 24.7988 23.0979H23.8457L23.8398 23.0567C23.8616 22.9303 23.8477 22.3532 23.8492 22.1856Z" fill="#A8A7A7"/>
<path d="M22.0206 20.3493C22.3246 20.3481 22.6287 20.3485 22.9326 20.3507C22.9297 20.6536 22.9297 20.9566 22.9325 21.2595C23.2099 21.2766 23.5677 21.268 23.8507 21.2682C23.8494 21.56 23.8421 21.8832 23.8513 22.1733C23.6033 22.1995 22.1069 22.1459 22.0192 22.204C21.9707 22.1722 19.2843 22.1851 19 22.1853L13.2166 22.1862L11.9252 22.186C11.6924 22.1859 11.3914 22.194 11.1641 22.1776C11.4087 22.158 11.8328 22.1699 12.0909 22.1701L13.7731 22.1719L17.4326 22.1715L22.0165 22.1718C22.0073 22.0107 22.0166 21.7453 22.0165 21.5741C22.0145 21.1659 22.0158 20.7577 22.0206 20.3493Z" fill="#A8A7A7"/>
<path d="M26.5976 22.1788L26.5957 23.097C26.3019 23.0977 25.962 23.1068 25.6719 23.0971C25.6963 22.9382 25.6845 22.3766 25.684 22.1799C25.9837 22.1788 26.2991 22.173 26.5976 22.1788Z" fill="#A8A7A7"/>
<path d="M5.51562 22.1887C5.81977 22.1895 6.13584 22.1924 6.43937 22.1851C6.43679 22.4096 6.40805 22.8968 6.4669 23.0975C6.151 23.0997 5.83509 23.0986 5.51921 23.0945C5.52214 22.7925 5.52095 22.4905 5.51562 22.1887Z" fill="#A8A7A7"/>
<path d="M22.0195 23.0847C22.2229 23.0521 23.6513 23.0226 23.8401 23.0567L23.8459 23.0979L22.638 23.1002C22.5153 23.1004 22.1186 23.1082 22.0195 23.0847Z" fill="#CBCBCD"/>
<path d="M7.35962 23.0495C7.66325 23.0466 7.96689 23.0461 8.27053 23.048L8.28769 23.0989L7.34413 23.0978L7.34375 23.0536L7.35962 23.0495Z" fill="#9B9A9C"/>
<path d="M4.61724 12.1133C4.58689 13.1452 4.6101 14.2886 4.61001 15.3271L4.6101 16.7406C4.61018 17.0076 4.60228 17.3276 4.61958 17.5894C5.50868 17.6327 6.45402 17.5764 7.34504 17.6026L7.34159 15.7578C7.34165 15.6127 7.33485 15.0742 7.35611 14.9744C7.36116 15.8515 7.34867 16.7257 7.36031 17.6043L9.12322 17.5971C9.36734 17.5957 9.80452 17.5788 10.0371 17.5962C9.84554 17.6192 9.39483 17.608 9.1798 17.6077C9.18026 17.9092 9.1825 18.2107 9.18653 18.5122C9.49166 18.5203 9.79696 18.5197 10.1021 18.5103C10.1035 18.8146 10.1011 19.1265 10.1066 19.4298C10.4082 19.4326 10.7099 19.4331 11.0115 19.4311C11.018 19.7177 11.005 20.0759 11.0226 20.3497C11.3259 20.3516 11.6292 20.3507 11.9325 20.3469C11.932 20.6426 11.9386 20.9753 11.9185 21.2676C12.1846 21.2672 12.6044 21.2497 12.8541 21.2636C12.8544 20.962 12.8519 20.6559 12.8555 20.3547L17.4348 20.3506C17.4347 20.6482 17.4293 20.9634 17.4353 21.2595L19.8409 21.26C20.197 21.26 20.7503 21.2432 21.0959 21.2659C21.102 20.9609 21.1043 20.6557 21.1028 20.3507L22.0171 20.3509L22.0183 19.4315C22.2995 19.4327 22.6464 19.4251 22.9236 19.439C22.9238 19.3403 22.9195 19.1805 22.9293 19.0868C22.9364 19.2016 22.9413 19.3186 22.9347 19.4337C22.9206 19.664 22.9255 20.1106 22.931 20.3504C22.627 20.3483 22.3229 20.3478 22.019 20.349C22.0142 20.7574 22.0128 21.1657 22.0148 21.5739C22.015 21.745 22.0056 22.0105 22.0148 22.1715L17.431 22.1712L13.7714 22.1717L12.0892 22.1698C11.8311 22.1697 11.407 22.1577 11.1624 22.1773L11.0163 22.1787L11.0112 20.3507C10.711 20.3466 10.4049 20.3492 10.1042 20.3487C10.1046 20.0437 10.1033 19.7387 10.1005 19.4337L9.18443 19.4321C8.12114 19.418 7.05449 19.4366 5.99088 19.4298C5.83416 19.4288 5.67661 19.4295 5.51991 19.4321L5.51945 18.5217C5.45298 18.5207 5.38613 18.516 5.31973 18.5122C5.08436 18.5174 4.8399 18.5126 4.60383 18.5109C4.58819 18.0475 4.59843 17.5221 4.59817 17.0545L4.59753 14.399C4.59751 14.1529 4.57074 12.2443 4.61724 12.1133Z" fill="#DADAD9"/>
<path d="M5.32031 18.5123C5.47682 18.4984 5.72425 18.5128 5.88993 18.5159C6.17794 18.5206 6.466 18.5225 6.75405 18.5211L8.34705 18.5191C8.60137 18.5186 8.93566 18.5085 9.18351 18.5198L9.18502 19.4323C8.12173 19.4182 7.05508 19.4368 5.99147 19.43C5.83475 19.4289 5.6772 19.4297 5.5205 19.4323L5.52004 18.5218C5.45357 18.5209 5.38672 18.5162 5.32031 18.5123Z" fill="#A8A7A7"/>
<path d="M13.7725 21.2675L16.1988 21.2697C16.5083 21.2697 17.1532 21.2865 17.4339 21.2588C17.4374 21.5629 17.4365 21.8671 17.4311 22.1712L13.7716 22.1717C13.7686 21.8702 13.7689 21.5689 13.7725 21.2675Z" fill="#FEFEFE"/>
<path d="M11.02 11.1838L13.7664 11.1831C13.763 11.4888 13.7639 11.7946 13.7689 12.1003L14.6836 12.1018C14.6779 13.0089 14.6727 13.94 14.682 14.8467L13.7701 14.849C13.7616 15.1544 13.7592 15.4599 13.7628 15.7654C12.8566 15.7662 11.9278 15.7757 11.0225 15.7652C11.0185 15.6398 11.0325 14.9088 10.9959 14.8556C10.9443 14.8466 10.9341 14.8464 10.8815 14.848C10.6697 14.8342 10.3278 14.8433 10.1066 14.8431C10.0857 13.962 10.1001 12.9849 10.1064 12.0997L11.0162 12.1012L11.02 11.1838Z" fill="#732725"/>
<path d="M11.0159 12.1009C11.3219 12.0993 11.6278 12.0992 11.9337 12.1007L11.9333 13.0174L11.0155 13.018C11.0129 12.7123 11.0131 12.4066 11.0159 12.1009Z" fill="#FEFEFE"/>
<path d="M21.1062 13.0181L23.8481 13.0188C23.8481 13.3224 23.8454 13.6311 23.8492 13.9342L24.7654 13.9364C24.7646 14.8341 24.7468 15.7902 24.7642 16.6819C24.4627 16.6813 24.1484 16.6769 23.8481 16.6844L23.8466 17.5932L22.1366 17.5918C21.817 17.5915 21.4154 17.5832 21.1042 17.6007C21.0976 17.3009 21.1025 16.9837 21.1022 16.6825C20.8005 16.677 20.4886 16.681 20.186 16.6813C20.1685 15.7888 20.184 14.8275 20.1851 13.9331C20.4874 13.9384 20.7999 13.9312 21.1039 13.932C21.0999 13.6274 21.1005 13.3227 21.1062 13.0181Z" fill="#732725"/>
<path d="M21.1026 13.9322C21.4056 13.9266 21.7088 13.9257 22.0119 13.9297C22.018 14.2357 22.0179 14.5418 22.0111 14.8478H21.1006C21.0988 14.5426 21.0995 14.2374 21.1026 13.9322Z" fill="#FEFEFE"/>
<path d="M10.1063 14.8431C10.3274 14.8433 10.6694 14.8342 10.8811 14.848C10.66 14.8608 10.3284 14.8585 10.1046 14.8516C10.0965 15.4344 10.0937 16.0172 10.0963 16.6001C10.0965 16.9145 10.1063 17.2647 10.0924 17.5745C10.0613 17.6 10.0787 17.5926 10.038 17.5963C9.80538 17.579 9.36821 17.5958 9.12408 17.5972L7.36118 17.6044C7.34954 16.7258 7.36202 15.8516 7.35697 14.9746C7.35608 14.9284 7.34955 14.8948 7.373 14.8564C7.44201 14.845 8.05768 14.8553 8.1572 14.8555C8.8069 14.8618 9.45668 14.8576 10.1063 14.8431Z" fill="#FE9997"/>
<path d="M23.8459 17.5934C23.9807 17.6362 25.4467 17.605 25.6846 17.6031L25.6737 18.5324C25.0606 18.5317 24.4712 18.517 23.8515 18.5258C23.8268 18.8316 23.861 19.1196 23.8465 19.4109C23.543 19.4262 23.2391 19.4339 22.9353 19.4339C22.9419 19.3188 22.937 19.2018 22.9299 19.087L22.939 18.513C23.2475 18.5228 23.5415 18.5206 23.8505 18.5193C23.8527 18.2147 23.853 17.91 23.8513 17.6053L22.0375 17.6039C21.7759 17.604 21.3498 17.6203 21.1035 17.601C21.4147 17.5835 21.8163 17.5918 22.1359 17.5921L23.8459 17.5934Z" fill="#FE9997"/>
<path d="M26.6052 13.933C27.1527 13.9444 27.9313 13.8819 28.4274 13.9263C28.2313 13.9539 27.7408 13.9332 27.5185 13.9372C27.5099 14.5441 27.5249 15.1569 27.5108 15.7618C27.2099 15.7651 26.909 15.7653 26.6081 15.7627C26.5923 15.1701 26.6109 14.533 26.6052 13.933Z" fill="#DADAD9"/>
<path d="M22.9258 8.38623C22.9476 8.42058 22.9419 8.42699 22.9724 8.42928C23.2037 8.44664 23.7857 8.4284 23.986 8.43334C24.4139 8.44391 28.3232 8.40735 28.4217 8.44969C28.0272 8.47074 27.4119 8.4505 27.0051 8.45041L23.8579 8.45326C23.8409 8.71031 23.847 9.0858 23.843 9.35134C23.5398 9.35473 23.2439 9.34318 22.9451 9.34447C22.9442 9.02216 22.9311 8.70662 22.9258 8.38623Z" fill="#DADAD9"/>
<path d="M6.43188 11.1807L6.61403 11.1823C6.54891 11.1896 6.49872 11.1948 6.43289 11.1968L6.42719 12.1002L5.51953 12.099L5.51959 11.1861C5.8044 11.1751 6.14332 11.1819 6.43188 11.1807Z" fill="#DADAD9"/>
<path d="M24.767 9.35449L27.518 9.35759C27.5138 9.66411 27.5131 9.97067 27.5158 10.2772L28.4348 10.2715C28.4303 10.5777 28.4306 10.8839 28.4357 11.1901C28.13 11.1835 27.8242 11.1802 27.5186 11.1801C27.5146 11.4776 27.5138 11.775 27.516 12.0725C27.5132 12.3839 27.5129 12.6954 27.515 13.0068C27.2063 13.0167 26.9189 13.0125 26.6098 13.0072C26.6061 12.7038 26.6048 12.4004 26.6061 12.097C26.3003 12.0986 25.9911 12.1034 25.6856 12.093C25.6905 11.4834 25.6877 10.8737 25.6776 10.2642C25.3752 10.2672 25.0729 10.2661 24.7706 10.2609C24.7656 9.95879 24.7643 9.65663 24.767 9.35449Z" fill="#FE9997"/>
<path d="M16.5194 16.6846L17.4321 16.6852L17.4304 17.599L19.2635 17.6024L19.262 18.5141C18.6573 18.5147 18.0409 18.509 17.4373 18.5165L17.4342 17.5987L16.5176 17.6018L16.5194 16.6846Z" fill="#732725"/>
<path d="M16.5176 14.8511C17.1293 14.8453 17.7411 14.8452 18.3527 14.8507C18.3426 15.1477 18.3458 15.4653 18.3446 15.7641L16.52 15.765L16.5176 14.8511Z" fill="#732725"/>
<path d="M14.6816 17.5956C15.2552 17.6352 15.9434 17.5716 16.5169 17.6016L16.5141 18.5135L14.6869 18.5129C14.6847 18.2068 14.6876 17.9021 14.6816 17.5956Z" fill="#732725"/>
<path d="M13.7724 16.6826L14.6819 16.684C14.6815 16.9846 14.6771 17.2959 14.6821 17.5955C14.3854 17.5988 14.0658 17.6078 13.7706 17.5962C13.766 17.2916 13.7666 16.987 13.7724 16.6826Z" fill="#732725"/>
</g>
<defs>
<clipPath id="clip0_305_26678">
<rect width="31.4085" height="24" fill="white"/>
</clipPath>
</defs>
</svg>
